<svg xmlns="http://www.w3.org/2000/svg" xmlns:xlink="http://www.w3.org/1999/xlink" width="100" height="100" viewBox="0 0 100 100"><g><g transform="translate(50 50) scale(0.69 0.69) rotate(0) translate(-50 -50)" style="fill:#000000"><svg fill="#000000" xmlns="http://www.w3.org/2000/svg" xmlns:xlink="http://www.w3.org/1999/xlink" version="1.1" x="0px" y="0px" viewBox="0 0 100 100" enable-background="new 0 0 100 100" xml:space="preserve"><g><path fill="none" d="M79.109,33.344c0-1.423-1.152-2.576-2.575-2.576H23.627c-1.422,0-2.576,1.153-2.576,2.576l1.074,39.353   c0,1.423,1.153,2.575,2.575,2.575h50.976c1.423,0,2.575-1.152,2.575-2.575L79.109,33.344z"></path><path d="M75.676,76.345H24.7c-2.006,0-3.64-1.628-3.649-3.633l-1.073-39.368c0-2.012,1.637-3.648,3.648-3.648h52.907   c2.012,0,3.648,1.637,3.648,3.648v0.023l-0.858,39.342C79.317,74.715,77.684,76.345,75.676,76.345z M22.125,33.331l1.073,39.365   c0,0.829,0.674,1.503,1.502,1.503h50.976c0.828,0,1.503-0.674,1.503-1.503v-0.023l0.858-39.339   c-0.006-0.824-0.678-1.493-1.503-1.493H23.627C22.803,31.841,22.131,32.508,22.125,33.331z"></path></g><path d="M68.756,69.749H31.157c-1.601,0-2.904-1.303-2.904-2.904V38.878c0-1.601,1.303-2.902,2.904-2.902h37.599  c1.601,0,2.903,1.302,2.903,2.902v27.967C71.659,68.446,70.356,69.749,68.756,69.749z M31.157,38.122  c-0.418,0-0.758,0.339-0.758,0.756v27.967c0,0.418,0.34,0.758,0.758,0.758h37.599c0.418,0,0.758-0.34,0.758-0.758V38.878  c0-0.417-0.34-0.756-0.758-0.756H31.157z"></path><path d="M30,80.83v-0.363C30,78.552,31.552,77,33.466,77h33.505c1.914,0,3.467,1.552,3.467,3.467v0.363"></path><g><line fill="#000000" x1="40.684" y1="30.033" x2="44.749" y2="19.19"></line><rect x="41.643" y="18.822" transform="matrix(0.9363 0.3512 -0.3512 0.9363 11.3659 -13.435)" width="2.147" height="11.581"></rect></g><g><line fill="#000000" x1="37.159" y1="29.978" x2="28.452" y2="13.69"></line><rect x="23.571" y="20.761" transform="matrix(0.4715 0.8819 -0.8819 0.4715 36.5938 -17.3906)" width="18.468" height="2.147"></rect></g><circle cx="27.93" cy="12.594" r="1.931"></circle><circle cx="45.314" cy="17.53" r="1.932"></circle><path d="M70,39v-0.171C70,37.819,69.181,37,68.169,37H30.831C29.82,37,29,37.819,29,38.829v28.342C29,68.181,29.82,69,30.831,69  h37.338C69.181,69,70,68.181,70,67.171V66H60v-1h10v-5h-8v-1h8v-1H59v-1h11v-2h-4v-1h4v-1h-2v-1h2v-2h-8v-1h8v-1h-4v-1h4v-1h-6v-1h6  v-2H60v-1h10v-2h-3v-1H70z M63,67h5v1h-5V67z M57,59v1H45v-1H57z M53.304,57.855v-0.869h1.793v0.869H53.304z M48,63h-8v-1h8V63z   M54,65v1H42v-1H54z M35,58v-1h10v1H35z M39.437,63.566v0.867h-1.793v-0.867H39.437z M43,55v1H31v-1H43z M36.077,52.467v-0.869  h1.793v0.869H36.077z M38,47h8v1h-8V47z M33,45v-1h11v1H33z M42,52h8v1h-8V52z M39.84,58.607h1.793v0.869H39.84V58.607z   M51.149,57.742h-1.794v-0.867h1.794V57.742z M44,50v-1h12v1H44z M46.818,45.809V44.94h1.793v0.869H46.818z M50.735,47.501h-1.793  v-0.869h1.793V47.501z M43,42v-1h10v1H43z M41,39h8v1h-8V39z M39.642,41.281h-1.793v-0.869h1.793V41.281z M31,38h7v1h-7V38z M31,42  h2v1h-2V42z M30,47h3v1h-3V47z M30,49h11v1H30V49z M30,59h4v1h-4V59z M30,64v-1h7v1H30z M43,68H31v-1h12V68z M46.958,67.539h-1.792  V66.67h1.792V67.539z M59,68H48v-1h11V68z M56.545,66.451v-0.867h1.792v0.867H56.545z M67.899,62.318h1.896v0.869h-1.896V62.318z   M66,64h-6v-1h6V64z M65,61v1H53v-1H65z M63,55H53v-1h3h7V55z M65,51v1H54v-1H65z M58.873,49.384v-0.869h1.793v0.869H58.873z M62,44  v1H51v-1H62z M56.604,41.626v-0.869h1.793v0.869H56.604z M65,39H53v-1h12V39z"></path><rect x="64" y="45" width="6" height="1"></rect><rect x="67" y="59" width="3" height="1"></rect><rect x="65" y="65" width="2" height="1"></rect><rect x="37" y="63" width="4" height="2"></rect></svg></g></g></svg>